<?xml version="1.0" encoding="UTF-8"?>
<svg width="131px" height="127px" viewBox="0 0 131 127" version="1.1" xmlns="http://www.w3.org/2000/svg" xmlns:xlink="http://www.w3.org/1999/xlink">
    <title>Join the Club</title>
    <g id="Page-1" stroke="none" stroke-width="1" fill="none" fill-rule="evenodd">
        <g id="Desktop-Lg" transform="translate(-172.000000, -777.000000)">
            <g id="How-It-Works" transform="translate(136.000000, 651.000000)">
                <g id="Group" transform="translate(0.000000, 122.000000)">
                    <g id="How-it-works" transform="translate(0.000000, 5.000000)">
                        <g id="Join-the-Club" transform="translate(37.000000, 0.000000)">
                            <circle id="Oval" stroke="#000000" fill="#FFFFFF" fill-rule="nonzero" cx="62.5" cy="62.5" r="62.5"></circle>
                            <path d="M37,62 L37,70.089066 C37.0004501,70.4041027 36.9812691,70.7188726 36.9425562,71.0316181 C36.9177026,71.2870065 36.857314,71.5378647 36.7630692,71.777219 C36.6271145,72.1070652 36.4380474,72.4134157 36.2030698,72.6846011 C35.9656778,72.9612257 35.6844929,73.1987137 35.3702503,73.3879982 C34.6907989,73.7918077 33.9105753,74.003603 33.1158939,74 C31.8426911,74 30.6616644,73.3493896 30,72.2836648 L32.0246131,70.2508474 C32.0549289,70.5565258 32.1745816,70.8471527 32.3692281,71.0878898 C32.5317531,71.2856876 32.7777515,71.3997151 33.0369196,71.3973845 C33.6112779,71.3973845 33.9056366,70.9472104 33.9056366,70.0538962 L33.9056366,62 L37,62 Z" id="Path" fill="#000000" fill-rule="nonzero"></path>
                            <path d="M38.0000651,69.9338661 C37.9968547,69.4005167 38.1124981,68.8730706 38.3387486,68.3894494 C38.5578534,67.9121008 38.8770368,67.4868016 39.2749216,67.142036 C39.690789,66.7756011 40.1729776,66.4911429 40.6957799,66.3038269 C41.2755368,66.0994374 41.8866034,65.9967093 42.5017307,66.0002237 C43.1099692,65.9945984 43.714482,66.0951242 44.2877628,66.2972269 C44.8146827,66.4811983 45.3014372,66.7634512 45.7219002,67.1288358 C46.1235594,67.4768924 46.4451175,67.9068406 46.6647127,68.3894494 C47.1117624,69.4239558 47.1117624,70.595578 46.6647127,71.6300844 C46.4382754,72.1086554 46.1176987,72.5372913 45.7219002,72.890698 C45.3019706,73.2571464 44.811915,73.5355141 44.2811233,73.7091068 C43.6959696,73.9089619 43.0805744,74.0071972 42.4618935,73.9995099 C41.8561698,74.0078561 41.2537428,73.9095379 40.6825009,73.7091068 C40.1621042,73.5313539 39.6832943,73.2507143 39.2749216,72.8840979 C38.8731279,72.5157142 38.5560628,72.0654557 38.3453881,71.5640837 C38.115318,71.0511613 37.997629,70.4954604 38.0000651,69.9338661 L38.0000651,69.9338661 Z M40.7887333,69.9338661 C40.789193,70.1610447 40.8366529,70.3857016 40.9281633,70.5938732 C41.0183417,70.7954206 41.1417658,70.9805721 41.2933371,71.1416791 C41.4500336,71.2958871 41.6347942,71.4190755 41.8377782,71.504683 C42.0485223,71.5898982 42.2742318,71.6325282 42.5017307,71.6300844 C42.729167,71.6318331 42.9547408,71.5892288 43.1656831,71.504683 C43.3666153,71.4189136 43.549169,71.295694 43.7034847,71.1416791 C43.8572679,70.9823203 43.9809619,70.7967641 44.0686585,70.5938732 C44.1612836,70.3860575 44.2087934,70.1611646 44.2081149,69.9338661 C44.2093983,69.7065064 44.1618622,69.4814888 44.0686585,69.273859 C43.9809619,69.0709681 43.8572679,68.8854118 43.7034847,68.7260531 C43.549169,68.5720381 43.3666153,68.4488185 43.1656831,68.3630491 C42.9547408,68.2785034 42.729167,68.235899 42.5017307,68.2376478 C42.2742318,68.235204 42.0485223,68.277834 41.8377782,68.3630491 C41.6347942,68.4486566 41.4500336,68.5718451 41.2933371,68.7260531 C41.1433073,68.8859028 41.0200192,69.0686219 40.9281633,69.2672589 C40.8374301,69.4888728 40.7988241,69.7281622 40.8152914,69.9668664 L40.7887333,69.9338661 Z" id="Shape" fill="#000000" fill-rule="nonzero"></path>
                            <path d="M48,63.4984519 C48.0093891,63.3007323 48.0566267,63.1067576 48.1390773,62.9273505 C48.2150099,62.746112 48.3252647,62.5817538 48.4635909,62.4435939 C48.5976373,62.3054486 48.7574923,62.1958092 48.9338046,62.1210896 C49.3014393,61.9596368 49.7185246,61.9596368 50.0861592,62.1210896 C50.2635598,62.1974418 50.4252939,62.3068293 50.5629956,62.4435939 C50.6970905,62.5838795 50.8048195,62.7478182 50.8808866,62.9273505 C51.0397045,63.2980528 51.0397045,63.7190075 50.8808866,64.0897099 C50.8048195,64.2692421 50.6970905,64.4331808 50.5629956,64.5734664 C50.4252939,64.710231 50.2635598,64.8196186 50.0861592,64.8959708 C49.7185246,65.0574235 49.3014393,65.0574235 48.9338046,64.8959708 C48.7574923,64.8212511 48.5976373,64.7116117 48.4635909,64.5734664 C48.3252647,64.4353066 48.2150099,64.2709484 48.1390773,64.0897099 C48.0544232,63.9039678 48.0071415,63.7029598 48,63.4984519 L48,63.4984519 Z M50.7881684,66.4144288 L50.7881684,74 L48.1390773,74 L48.1390773,66.4144288 L50.7881684,66.4144288 Z" id="Shape" fill="#000000" fill-rule="nonzero"></path>
                            <path d="M53.0134,66.1681979 L55.6933986,66.1681979 L55.6933986,67.1601799 C55.9857015,66.7659049 56.3647113,66.4495961 56.798898,66.2375673 C57.2258993,66.0671979 57.6815078,65.9870054 58.1388973,66.0017114 C58.5982158,65.9944867 59.0541448,66.0841767 59.4788966,66.265315 C59.8499833,66.4413602 60.1793057,66.6994546 60.4436961,67.0214412 C60.6543431,67.2787853 60.8055724,67.5824506 60.8858959,67.9093691 C60.9649408,68.2735765 61.0031599,68.6460061 60.9997958,69.0192791 L60.9997958,74 L58.3197972,74 L58.3197972,70.0459458 C58.3262445,69.7293788 58.2992847,69.4130293 58.2393973,69.1025223 C58.1988581,68.8879312 58.0987347,68.6902459 57.9512974,68.5336935 C57.8430839,68.4143121 57.7069178,68.3259 57.5559976,68.2770268 C57.4029393,68.2230766 57.2419482,68.1972523 57.0802979,68.2007205 C56.6922059,68.1769132 56.3132586,68.3287901 56.0417984,68.6169367 C55.7810535,68.9563548 55.6520362,69.3843051 55.6799986,69.8170269 L55.6799986,73.9791892 L53,73.9791892 L53.0134,66.1681979 Z" id="Path" fill="#000000" fill-rule="nonzero"></path>
                            <polygon id="Path" fill="#000000" fill-rule="nonzero" points="69.4914361 68.5615228 69.4914361 74 66.85639 74 66.85639 68.5615228 66 68.5615228 66 66.3045547 66.8695652 66.3045547 66.8695652 64 69.5046113 64 69.5046113 66.3045547 71 66.3045547 71 68.5615228"></polygon>
                            <path d="M73,62 L75.6764304,62 L75.6764304,67.5202629 C75.9664523,67.1475603 76.3425849,66.8479662 76.7737668,66.6462212 C77.2001996,66.484821 77.6552015,66.4088502 78.111982,66.422782 C78.9090227,66.364968 79.6931705,66.6448097 80.2665085,67.1916758 C80.7753523,67.7695918 81.0367171,68.5185063 80.9958357,69.2814896 L80.9958357,74 L78.3194054,74 L78.3194054,70.2541073 C78.3280291,69.9472854 78.2988222,69.6405657 78.2324214,69.3406353 C78.187419,69.1394585 78.0853474,68.9549052 77.938014,68.8083242 C77.7016238,68.6049738 77.395662,68.4969798 77.0815563,68.5060241 C76.6939811,68.4834702 76.3155383,68.6273514 76.0444395,68.9003286 C75.7840418,69.221878 75.6551963,69.6272988 75.6831214,70.0372399 L75.6831214,73.9802848 L73.0066911,73.9802848 L73,62 Z" id="Path" fill="#000000" fill-rule="nonzero"></path>
                            <path d="M84.5404353,70.4423463 C84.5404353,71.5775031 85.0612659,72.1450816 86.0964969,72.1450816 C86.6197421,72.1811221 87.1178052,71.9101802 87.3824982,71.4455082 L89.8580506,71.4455082 C89.3629401,73.1482434 88.1090889,73.999611 86.1093569,73.999611 C85.5359498,74.0069315 84.9657422,73.9108773 84.4246952,73.7158218 C83.946174,73.54207 83.5081923,73.2678483 83.1386939,72.9106524 C82.7751251,72.5606958 82.4880279,72.1355523 82.2963631,71.6632999 C82.0919638,71.1481746 81.9913471,70.5958895 82.0005828,70.0397616 C81.99297,69.4678243 82.0889031,68.899409 82.2835031,68.3634254 C82.4577498,67.8837791 82.7320737,67.4490417 83.0872539,67.0896739 C83.4564057,66.7320119 83.8944888,66.4577267 84.3732552,66.2845045 C84.9114132,66.0867992 85.4799795,65.9906545 86.0514868,66.0007153 C86.6145772,65.9910692 87.1746355,66.0872492 87.7039985,66.2845045 C88.1735849,66.4593936 88.5995966,66.738878 88.9514197,67.1028734 C89.3000737,67.4804286 89.5654314,67.930615 89.7294505,68.4228231 C89.9162167,68.9856686 90.0075606,69.5772196 89.9995108,70.1717566 L89.9995108,70.4489461 L84.5404353,70.4423463 Z M87.5432483,68.9178043 C87.470564,68.5700619 87.2845879,68.2581268 87.0159878,68.033438 C86.7459421,67.8082851 86.405622,67.6910689 86.0579168,67.7034505 C85.7079331,67.6876812 85.3638592,67.799943 85.0869859,68.0202385 C84.8285768,68.2511248 84.6596915,68.5697022 84.6111654,68.9178043 L87.5432483,68.9178043 Z" id="Shape" fill="#000000" fill-rule="nonzero"></path>
                            <path d="M52.9929288,85.1119792 C52.374168,84.3168804 51.4041361,83.8519006 50.376579,83.8578455 C49.9415049,83.853405 49.5103066,83.9374526 49.1108314,84.1045604 C48.7312196,84.2639212 48.3894468,84.4971852 48.1067188,84.7898793 C47.8223082,85.074789 47.596697,85.4097498 47.4420245,85.7767385 C47.1204687,86.5766943 47.1204687,87.4644903 47.4420245,88.2644462 C47.6078934,88.6396055 47.8481438,88.9795558 48.1491461,89.2650118 C48.7403221,89.8507297 49.5524138,90.1774307 50.3977927,90.1696328 C51.4058059,90.1338621 52.3500609,89.6825257 52.9929288,88.9292055 L52.9929288,92.424332 L52.6817953,92.5271298 C52.2560835,92.6790696 51.8186686,92.7982277 51.3736204,92.8834957 C50.9776366,92.9591861 50.5751213,92.9981966 50.1715138,93 C48.5683693,93.0002907 47.0293398,92.3898765 45.8863571,91.300409 C45.3116915,90.7531603 44.85079,90.1040632 44.5286837,89.3883692 C43.4825975,87.0999412 44.0188234,84.4221575 45.8722147,82.679097 C46.4488241,82.1490032 47.122782,81.7282731 47.8592263,81.4386698 C48.6072154,81.1453961 49.4070689,80.9964103 50.2139411,81 C50.6748283,81.0005022 51.1344715,81.046427 51.5857569,81.1371295 C52.0693635,81.2464395 52.5424872,81.3954637 53,81.5825867 L52.9929288,85.1119792 Z" id="Path" fill="#000000" fill-rule="nonzero"></path>
                            <polygon id="Path" fill="#000000" fill-rule="nonzero" points="57 81 57 93 54 93 54 81"></polygon>
                            <path d="M60.6734557,85 L60.6734557,89.3417329 C60.6734557,90.095781 61.2688583,90.7070578 62.0033247,90.7070578 C62.737791,90.7070578 63.3331937,90.095781 63.3331937,89.3417329 L63.3331937,85 L65.9929317,85 L65.9929317,89.867383 C66.0571247,90.7705334 65.6810332,91.6476105 64.9888806,92.2089151 C64.1010376,92.7910341 63.0541165,93.0639317 62.0033247,92.9871502 C60.9503934,93.0644411 59.9012082,92.7915612 59.0111194,92.2089151 C58.3189668,91.6476105 57.9428753,90.7705334 58.0070683,89.867383 L58.0070683,85 L60.6734557,85 Z" id="Path" fill="#000000" fill-rule="nonzero"></path>
                            <path d="M70.7334187,80 L70.7334187,85.6502638 C71.3556766,84.9736866 72.230588,84.6002535 73.1388272,84.623578 C73.6795401,84.6182758 74.2152135,84.7301536 74.710543,84.9518381 C75.1707808,85.1630479 75.5845168,85.4671275 75.9269143,85.845823 C76.2713437,86.2299439 76.5404414,86.6780572 76.7196058,87.1658475 C76.9076144,87.6843378 77.0025273,88.2332504 76.9997812,88.7861951 C77.0053221,89.3474572 76.9055758,89.9046047 76.7059387,90.4274955 C76.5233219,90.9245576 76.2470371,91.3801593 75.8927466,91.7684728 C75.5395462,92.1469381 75.1169559,92.4506992 74.6490411,92.6624577 C74.1663764,92.8868437 73.6417315,93.0012364 73.111493,92.997702 C72.188108,93.0349917 71.3034048,92.6166624 70.7334187,91.8732367 L70.7334187,92.753253 L68,92.753253 L68,80 L70.7334187,80 Z M74.1501922,88.8350849 C74.1494818,88.5954104 74.1030588,88.3581765 74.0135212,88.1366592 C73.9256346,87.9227226 73.7979978,87.7282308 73.6376762,87.5639502 C73.4759558,87.3995407 73.2860076,87.266959 73.0773253,87.1728318 C72.6409258,86.9818041 72.1470154,86.9818041 71.7106159,87.1728318 C71.5041174,87.2604085 71.317882,87.3912691 71.1639322,87.5569659 C71.0058701,87.7231305 70.8785365,87.9171603 70.7880871,88.129675 C70.6929505,88.3496518 70.6440612,88.5875926 70.6445826,88.8281007 C70.642703,89.068034 70.6892278,89.3057884 70.7812536,89.5265264 C70.8668204,89.7396854 70.9948099,89.9323362 71.1570986,90.0922512 C71.3218422,90.251048 71.5111898,90.3808503 71.7174495,90.4763853 C72.1553887,90.659581 72.6462197,90.659581 73.0841589,90.4763853 C73.2900276,90.3838871 73.477617,90.2537024 73.6376762,90.0922512 C73.7920902,89.9230966 73.918981,89.7297416 74.0135212,89.5195421 C74.1121449,89.3054207 74.1634706,89.0717454 74.1638593,88.8350849 L74.1501922,88.8350849 Z" id="Shape" fill="#000000" fill-rule="nonzero"></path>
                            <polygon id="Path" stroke="#000000" points="57.0331707 28.4904988 52 28.4904988 52 21 66 21 66 55 57.0331707 55"></polygon>
                            <path d="M106.5,46 C102.910149,46 100,43.0898509 100,39.5 C100,35.9101491 102.910149,33 106.5,33 C110.089851,33 113,35.9101491 113,39.5 C112.996217,43.0882827 110.088283,45.9962169 106.5,46 L106.5,46 Z M106.5,33.9540612 C104.252856,33.9512895 102.225565,35.3031669 101.364337,37.3787273 C100.50311,39.4542878 100.977747,41.8443089 102.566719,43.4332809 C104.155691,45.0222529 106.545712,45.4968904 108.621273,44.6356628 C110.696833,43.7744351 112.04871,41.7471441 112.045939,39.5 C112.042153,36.4386328 109.561367,33.9578473 106.5,33.9540612 Z" id="Shape" stroke="#333333"></path>
                            <path d="M100.829286,37 L100,36.6651146 L103.857143,26.5660214 C104.395579,25.4230527 105.626429,24.801005 106.842617,25.057221 C108.058804,25.3134369 108.948249,26.38217 109,27.6494741 L108.112857,27.7479699 C108.041839,26.7910635 107.306083,26.0256696 106.370714,25.9356488 C105.663982,25.9336785 105.012802,26.3267153 104.673571,26.9600042 L100.829286,37 Z" id="Path" stroke="#333333"></path>
                            <path d="M122.506958,46 C119.877369,46.0027695 117.505162,44.4208807 116.496937,41.9922546 C115.488712,39.5636285 116.043121,36.7667794 117.90154,34.9063968 C119.759959,33.0460142 122.556222,32.4886509 124.985913,33.4943089 C127.415604,34.4999669 129,36.8705004 129,39.5000899 C128.996226,43.0856442 126.092508,45.9924302 122.506958,46 Z M122.506958,33.9542341 C120.259847,33.9514624 118.232585,35.3033196 117.37137,37.378849 C116.510155,39.4543784 116.984786,41.8443637 118.573735,43.433312 C120.162684,45.0222602 122.55267,45.4968906 124.6282,44.6356759 C126.70373,43.7744611 128.055588,41.7472004 128.052816,39.5000899 C128.04903,36.4387685 125.568281,33.9580201 122.506958,33.9542341 Z" id="Shape" stroke="#333333"></path>
                            <path d="M125.288856,37 C124.566567,36.338829 123.594785,35.9697706 122.583578,35.9726032 C122.157385,35.9733055 121.734088,36.0380597 121.329912,36.1643839 L121,35.2397268 C121.510638,35.0808271 122.045358,34.9998798 122.583578,35 C123.859398,34.9992866 125.085153,35.4637387 126,36.2945208 L125.288856,37 Z" id="Path" stroke="#333333"></path>
                            <path d="M125.303371,38 C125.218524,37.8188985 125.116932,37.6466204 125,37.4855491 L125.617978,37 C125.764387,37.2032596 125.89227,37.4199766 126,37.6473988 L125.303371,38 Z" id="Path" stroke="#333333"></path>
                            <path d="M127.177143,37 L123.32,26.9716244 C122.988282,26.3348566 122.336041,25.9401399 121.629286,25.9484546 C120.695142,26.0485625 119.961805,26.8105068 119.880714,27.7652369 L119,27.6668552 C119.039922,26.3935996 119.930347,25.314355 121.153224,25.0570279 C122.376101,24.7997009 123.612407,25.4314226 124.142857,26.5846564 L124.142857,26.6240091 L128,36.672061 L127.177143,37 Z" id="Path" stroke="#333333"></path>
                            <path d="M117,39 L116.122137,39 C116.06853,37.9742663 115.359638,37.175274 114.503181,37.175274 C113.646723,37.175274 112.937831,37.9742663 112.884224,39 L112,39 C112,37.3431458 113.119288,36 114.5,36 C115.880712,36 117,37.3431458 117,39 L117,39 Z" id="Path" stroke="#333333"></path>
                            <circle id="Oval" stroke="#000000" fill="#FFFFFF" fill-rule="nonzero" cx="106.5" cy="39.5" r="6.5"></circle>
                            <circle id="Oval" stroke="#000000" fill="#FFFFFF" fill-rule="nonzero" cx="122.5" cy="39.5" r="6.5"></circle>
                        </g>
                    </g>
                </g>
            </g>
        </g>
    </g>
</svg>